<?xml version="1.0" encoding="UTF-8" standalone="no"?>
<!DOCTYPE svg PUBLIC "-//W3C//DTD SVG 1.1//EN" "http://www.w3.org/Graphics/SVG/1.1/DTD/svg11.dtd">
<svg width="100%" height="100%" viewBox="0 0 1024 1024" version="1.1" xmlns="http://www.w3.org/2000/svg" xmlns:xlink="http://www.w3.org/1999/xlink" xml:space="preserve" xmlns:serif="http://www.serif.com/" style="fill-rule:evenodd;clip-rule:evenodd;stroke-linejoin:round;stroke-miterlimit:2;">
    <g transform="matrix(1,0,0,1,-121.862,0)">
        <g id="Logo" transform="matrix(0.890915,0,0,0.950372,103.199,1432.6)">
            <rect x="20.949" y="-1507.41" width="1149.38" height="1077.47" style="fill:none;"/>
            <clipPath id="_clip1">
                <rect x="20.949" y="-1507.41" width="1149.38" height="1077.47"/>
            </clipPath>
            <g clip-path="url(#_clip1)">
                <g transform="matrix(0.803122,0,0,0.861805,0.400823,-1438.39)">
                    <rect x="25.585" y="-80.088" width="1431.14" height="1250.25" style="fill:white;"/>
                </g>
                <g transform="matrix(1.12244,0,0,1.05222,18.4039,-1515.78)">
                    <g transform="matrix(1,0,0,1,694.997,709.62)">
                        <path d="M0,-0.001C0.001,-0.023 0.002,-0.046 0.003,-0.069L-0.003,-0.069C-0.307,-10.755 -1.164,-21.392 -2.602,-31.891C-7.211,-65.567 -18.532,-99.871 -39.045,-128.263C-57.246,-153.457 -78.612,-176.675 -102.524,-197.354C-108.521,-201.063 -113.763,-206.821 -119.303,-211.156C-125.162,-215.741 -131.146,-220.188 -137.247,-224.494C-148.854,-232.69 -160.975,-240.95 -173.654,-247.718C-173.712,-247.755 -173.762,-247.792 -173.824,-247.83C-176.205,-249.283 -178.997,-250.381 -178.997,-250.381C-178.997,-250.381 -181.789,-249.283 -184.17,-247.83C-184.232,-247.792 -184.282,-247.755 -184.34,-247.718C-197.02,-240.95 -209.141,-232.69 -220.747,-224.494C-226.848,-220.188 -232.832,-215.741 -238.691,-211.156C-244.231,-206.821 -249.474,-201.063 -255.47,-197.354C-279.382,-176.675 -300.748,-153.457 -318.949,-128.263C-339.462,-99.871 -350.783,-65.567 -355.393,-31.891C-356.83,-21.392 -357.687,-10.755 -357.991,-0.069L-357.997,-0.069C-357.996,-0.046 -357.995,-0.023 -357.994,-0.001C-357.995,0.021 -357.996,0.045 -357.997,0.067L-357.991,0.067C-357.687,10.753 -356.83,21.391 -355.393,31.889C-350.783,65.566 -339.462,99.869 -318.949,128.261C-300.748,153.455 -279.382,176.674 -255.47,197.352C-249.474,201.061 -244.231,206.82 -238.691,211.154C-232.832,215.739 -226.848,220.186 -220.747,224.492C-209.141,232.688 -197.02,240.948 -184.34,247.716C-184.282,247.754 -184.232,247.79 -184.17,247.828C-181.789,249.281 -178.997,250.38 -178.997,250.38C-178.997,250.38 -176.205,249.281 -173.824,247.828C-173.762,247.79 -173.712,247.754 -173.654,247.716C-160.975,240.948 -148.854,232.688 -137.247,224.492C-131.146,220.186 -125.162,215.739 -119.303,211.154C-113.763,206.82 -108.521,201.061 -102.524,197.352C-78.612,176.674 -57.246,153.455 -39.045,128.261C-18.532,99.869 -7.211,65.566 -2.602,31.889C-1.164,21.391 -0.307,10.753 -0.003,0.067L0.003,0.067C0.002,0.045 0.001,0.021 0,-0.001" style="fill:rgb(22,19,18);fill-rule:nonzero;"/>
                    </g>
                    <g transform="matrix(1,0,0,1,656.276,699.555)">
                        <path d="M0,-0.001C0.001,-0.02 0.002,-0.038 -0.002,-0.058C-0.24,-8.897 -0.915,-17.697 -2.045,-26.383C-5.67,-54.244 -14.573,-82.622 -30.703,-106.11C-45.017,-126.953 -61.817,-146.162 -80.621,-163.269C-85.337,-166.337 -89.46,-171.102 -93.816,-174.688C-98.424,-178.48 -103.13,-182.159 -107.927,-185.722C-117.054,-192.503 -126.585,-199.335 -136.556,-204.935C-136.602,-204.966 -136.641,-204.996 -136.689,-205.027C-138.562,-206.23 -140.758,-207.138 -140.758,-207.138C-140.758,-207.138 -142.953,-206.23 -144.825,-205.027C-144.875,-204.996 -144.914,-204.966 -144.959,-204.935C-154.931,-199.335 -164.461,-192.503 -173.589,-185.722C-178.386,-182.159 -183.092,-178.48 -187.699,-174.688C-192.056,-171.102 -196.179,-166.337 -200.894,-163.269C-219.697,-146.162 -236.499,-126.953 -250.812,-106.11C-266.942,-82.622 -275.846,-54.244 -279.47,-26.383C-280.601,-17.697 -281.274,-8.897 -281.518,-0.058C-281.518,-0.038 -281.517,-0.02 -281.516,-0.001C-281.517,0.018 -281.518,0.037 -281.514,0.056C-281.274,8.895 -280.601,17.695 -279.47,26.381C-275.846,54.242 -266.942,82.621 -250.812,106.109C-241.463,119.723 -231.068,132.616 -219.774,144.666C-208.061,157.164 -195.155,168.622 -181.779,179.307C-175.881,184.018 -169.876,188.635 -163.677,192.944C-160.661,195.041 -157.637,197.126 -154.552,199.121C-151.418,201.147 -148.058,202.868 -144.959,204.934C-144.914,204.964 -144.875,204.994 -144.825,205.025C-142.953,206.228 -140.758,207.137 -140.758,207.137C-140.758,207.137 -138.562,206.228 -136.689,205.025C-136.641,204.994 -136.602,204.964 -136.556,204.934C-129.017,200.699 -121.827,195.852 -114.828,190.782C-107.901,185.765 -101.131,180.531 -94.529,175.092C-87.929,169.653 -81.497,164.008 -75.248,158.168C-71.807,154.952 -68.448,151.666 -65.177,148.277C-59.404,142.301 -53.856,136.108 -48.551,129.715C-43.254,123.333 -38.199,116.75 -33.405,109.982C-32.495,108.698 -31.595,107.406 -30.703,106.109C-14.573,82.621 -5.67,54.242 -2.045,26.381C-0.915,17.695 -0.24,8.895 0.003,0.056C0.002,0.037 0.001,0.018 0,-0.001" style="fill:rgb(250,184,40);fill-rule:nonzero;"/>
                    </g>
                    <g transform="matrix(1,0,0,1,564.732,528.979)">
                        <path d="M0,341.15C-0.049,341.119 -0.089,341.088 -0.134,341.057C-3.232,338.992 -6.593,337.272 -9.727,335.246C-12.812,333.251 -15.836,331.166 -18.852,329.069C-25.051,324.759 -31.056,320.142 -36.954,315.431C-50.33,304.746 -63.235,293.289 -74.949,280.791C-86.243,268.741 -96.638,255.847 -105.987,242.233C-122.117,218.745 -131.021,190.367 -134.645,162.505C-135.775,153.82 -136.449,145.02 -136.688,136.18C-136.692,136.161 -136.691,136.142 -136.69,136.124C-136.691,136.105 -136.692,136.086 -136.692,136.067C-136.449,127.227 -135.775,118.427 -134.645,109.741C-131.021,81.88 -122.117,53.502 -105.987,30.013C-91.674,9.171 -74.872,-10.037 -56.068,-27.144C-52.695,-29.34 -49.625,-32.401 -46.555,-35.28C-47.969,-36.047 -49.214,-36.563 -49.214,-36.563C-49.214,-36.563 -51.409,-35.654 -53.281,-34.452C-53.33,-34.42 -53.37,-34.39 -53.416,-34.359C-63.387,-28.76 -72.917,-21.927 -82.045,-15.146C-86.842,-11.583 -91.548,-7.905 -96.155,-4.112C-100.512,-0.526 -104.635,4.239 -109.35,7.307C-128.153,24.414 -144.955,43.623 -159.269,64.464C-175.398,87.954 -184.302,116.332 -187.926,144.193C-189.057,152.879 -189.73,161.678 -189.974,170.518C-189.974,170.538 -189.973,170.556 -189.972,170.575C-189.973,170.593 -189.974,170.613 -189.97,170.631C-189.73,179.471 -189.057,188.271 -187.926,196.957C-184.302,224.818 -175.398,253.197 -159.269,276.685C-149.919,290.298 -139.524,303.192 -128.23,315.242C-116.517,327.74 -103.611,339.198 -90.235,349.882C-84.337,354.593 -78.332,359.211 -72.133,363.52C-69.117,365.617 -66.093,367.702 -63.008,369.697C-59.874,371.723 -56.514,373.444 -53.416,375.509C-53.37,375.54 -53.33,375.57 -53.281,375.601C-51.409,376.803 -49.214,377.713 -49.214,377.713C-49.214,377.713 -47.018,376.803 -45.146,375.601C-45.097,375.57 -45.058,375.54 -45.012,375.509C-37.473,371.275 -30.283,366.427 -23.284,361.358C-16.357,356.34 -9.587,351.107 -2.985,345.668C-1.509,344.451 -0.043,343.22 1.417,341.982C0.95,341.729 0.465,341.449 0,341.15" style="fill:rgb(227,143,25);fill-rule:nonzero;"/>
                    </g>
                    <g transform="matrix(1,0,0,1,514.082,623.143)">
                        <path d="M0,26.387C51.382,26.387 99.918,38.463 142.918,59.888C142.832,59.181 142.762,58.471 142.67,57.766C139.646,34.526 133.031,10.935 121.751,-10.013C84.505,-25.141 43.75,-33.501 1.023,-33.501C-42.021,-33.501 -83.064,-25.018 -120.534,-9.676C-131.705,11.187 -138.265,34.65 -141.272,57.766C-141.332,58.226 -141.376,58.689 -141.434,59.149C-98.805,38.183 -50.792,26.387 0,26.387" style="fill:rgb(22,19,18);fill-rule:nonzero;"/>
                    </g>
                    <g transform="matrix(1,0,0,1,373.583,754.755)">
                        <path d="M0,-21.41C2.757,-3.528 7.683,14.422 15.264,31.086C53.443,15.048 95.413,6.17 139.476,6.17C184.643,6.17 227.611,15.501 266.555,32.307C274.365,15.497 279.446,-2.661 282.291,-20.771C239.57,-41.847 191.434,-53.717 140.499,-53.717C90.078,-53.717 42.397,-42.088 0,-21.41" style="fill:rgb(22,19,18);fill-rule:nonzero;"/>
                    </g>
                    <g transform="matrix(1,0,0,1,567.977,810.597)">
                        <path d="M0,64.573C4.706,60.549 9.328,56.427 13.852,52.199C17.374,48.908 20.812,45.544 24.16,42.076C30.068,35.96 35.746,29.622 41.177,23.078C43.081,20.784 44.942,18.455 46.784,16.111C15.131,5.669 -18.714,0 -53.896,0C-88.666,0 -122.128,5.543 -153.461,15.752C-147.333,23.573 -140.865,31.13 -134.07,38.38C-125.563,47.456 -116.436,55.987 -106.964,64.089C-90.026,61.329 -72.643,59.887 -54.919,59.887C-36.191,59.887 -17.843,61.5 0,64.573" style="fill:rgb(22,19,18);fill-rule:nonzero;"/>
                    </g>
                    <g transform="matrix(1,0,0,1,676.171,437.506)">
                        <path d="M0,-335.621C-0.538,-342.63 -4.874,-350.119 -11.171,-353.46C-17.544,-356.842 -25.501,-358.115 -32.652,-357.421C-44.132,-356.308 -55.809,-350.038 -65.126,-343.605C-85.398,-329.608 -101.082,-310.117 -113.133,-288.831C-116.142,-283.518 -118.913,-278.071 -121.435,-272.51C-121.708,-271.909 -123.7,-267.336 -125.034,-263.779C-136.416,-266.86 -148.357,-268.506 -160.671,-268.506C-173.268,-268.506 -185.473,-266.78 -197.089,-263.56C-198.422,-267.146 -200.493,-271.896 -200.771,-272.51C-203.293,-278.071 -206.064,-283.518 -209.073,-288.831C-221.124,-310.117 -236.808,-329.608 -257.08,-343.605C-266.397,-350.038 -278.074,-356.308 -289.554,-357.421C-296.705,-358.115 -304.662,-356.842 -311.035,-353.46C-317.331,-350.119 -321.668,-342.63 -322.206,-335.621C-322.806,-327.814 -316.993,-321.594 -310.282,-318.369C-303.059,-314.897 -294.905,-315.455 -287.295,-313.498C-264.755,-307.699 -252.125,-285.46 -241.524,-266.625C-238.156,-260.641 -234.862,-254.585 -232.206,-248.249C-273.488,-222.908 -301.171,-176.309 -301.171,-123.006C-301.171,-42.649 -238.267,22.494 -160.671,22.494C-83.075,22.494 -20.171,-42.649 -20.171,-123.006C-20.171,-176.604 -48.16,-223.426 -89.824,-248.671C-87.198,-254.854 -83.976,-260.773 -80.681,-266.625C-70.081,-285.46 -57.45,-307.699 -34.911,-313.498C-27.301,-315.455 -19.147,-314.897 -11.923,-318.369C-5.213,-321.594 0.6,-327.814 0,-335.621" style="fill:rgb(22,19,18);fill-rule:nonzero;"/>
                    </g>
                    <g transform="matrix(1,0,0,1,459.011,390.736)">
                        <path d="M0,227.486C0.018,227.468 0.036,227.451 0.054,227.432L0.051,227.429C7.985,218.594 15.51,209.448 22.539,200.045C45.084,169.882 63.578,134.947 71.37,98.953C78.284,67.013 81.56,34.661 81.182,2.744C79.962,-4.066 80.813,-12.055 80.378,-19.08C79.918,-26.511 79.269,-33.91 78.435,-41.268C76.849,-55.272 74.964,-69.653 71.567,-83.184C71.557,-83.25 71.551,-83.312 71.537,-83.382C71.039,-86.07 69.992,-88.733 69.992,-88.733C69.992,-88.733 67.271,-89.619 64.559,-89.956C64.487,-89.965 64.426,-89.968 64.358,-89.974C50.649,-92.558 36.182,-93.581 22.108,-94.328C14.713,-94.722 7.289,-94.929 -0.156,-94.945C-7.195,-94.96 -15.119,-93.634 -21.989,-94.445C-53.872,-92.918 -85.972,-87.719 -117.442,-78.911C-152.907,-68.985 -186.676,-48.44 -215.439,-24.135C-224.407,-16.558 -233.089,-8.501 -241.434,-0.053L-241.437,-0.056L-241.487,0.001C-241.506,0.019 -241.523,0.036 -241.542,0.054L-241.538,0.057C-249.474,8.892 -256.998,18.039 -264.026,27.442C-286.571,57.605 -305.065,92.539 -312.857,128.533C-319.772,160.473 -323.047,192.826 -322.669,224.743C-321.45,231.552 -322.301,239.542 -321.865,246.567C-321.405,253.998 -320.757,261.396 -319.922,268.755C-318.336,282.758 -316.452,297.139 -313.055,310.671C-313.044,310.737 -313.038,310.799 -313.025,310.869C-312.526,313.556 -311.479,316.219 -311.479,316.219C-311.479,316.219 -308.759,317.105 -306.046,317.443C-305.976,317.452 -305.913,317.455 -305.846,317.461C-292.137,320.045 -277.67,321.067 -263.596,321.815C-256.201,322.209 -248.776,322.416 -241.331,322.431C-234.292,322.446 -226.368,321.121 -219.498,321.931C-187.615,320.404 -155.516,315.205 -124.046,306.397C-88.58,296.472 -54.812,275.926 -26.048,251.622C-17.08,244.045 -8.398,235.988 -0.054,227.54L-0.05,227.543C-0.033,227.524 -0.017,227.505 0,227.486" style="fill:rgb(22,19,18);fill-rule:nonzero;"/>
                    </g>
                    <g transform="matrix(1,0,0,1,422.729,417.419)">
                        <path d="M0,177.159C0.014,177.145 0.028,177.132 0.039,177.115C6.226,170.247 12.093,163.135 17.574,155.822C35.156,132.367 49.591,105.193 55.694,77.182C61.391,51.046 63.815,24.235 63.219,-2.5C62.75,-23.533 59.8,-43.942 56.044,-64.598C56.035,-64.651 56.031,-64.698 56.021,-64.753C55.636,-66.846 54.823,-68.92 54.823,-68.92C54.823,-68.92 52.706,-69.612 50.595,-69.878C50.54,-69.885 50.492,-69.887 50.439,-69.892C39.771,-71.918 28.51,-72.73 17.556,-73.327C13.055,-73.572 8.55,-73.783 4.047,-73.78C-0.535,-73.778 -5.115,-73.655 -9.695,-73.527C-9.925,-73.521 -10.153,-73.514 -10.383,-73.508C-19.353,-73.256 -28.24,-72.85 -37.167,-71.876C-46.121,-70.899 -55.034,-69.559 -63.879,-67.861C-65.03,-67.64 -66.18,-67.415 -67.329,-67.182C-71.722,-66.293 -76.097,-65.316 -80.45,-64.254C-84.012,-63.385 -87.56,-62.459 -91.092,-61.475C-118.709,-53.787 -145.018,-37.83 -167.435,-18.941C-174.423,-13.053 -181.19,-6.79 -187.698,-0.226C-187.711,-0.211 -187.724,-0.196 -187.737,-0.181C-187.751,-0.168 -187.766,-0.154 -187.776,-0.137C-193.963,6.731 -199.83,13.844 -205.312,21.156C-222.894,44.611 -237.327,71.785 -243.432,99.796C-245.351,108.601 -246.922,117.484 -248.137,126.415C-249.341,135.271 -250.194,144.177 -250.687,153.101C-251.181,162.041 -251.158,171.019 -250.924,179.968C-250.687,189.034 -250.417,198.255 -249.297,207.263C-249.228,207.82 -249.145,208.38 -249.081,208.941C-247.862,219.844 -246.41,231.04 -243.781,241.576C-243.772,241.629 -243.768,241.677 -243.758,241.731C-243.372,243.824 -242.561,245.898 -242.561,245.898C-242.561,245.898 -240.443,246.591 -238.332,246.856C-238.277,246.863 -238.229,246.865 -238.177,246.87C-227.508,248.896 -216.247,249.708 -205.292,250.305C-201.913,250.489 -198.532,250.67 -195.148,250.762C-188.479,250.942 -181.727,250.725 -175.049,250.481C-148.763,249.52 -122.185,245.562 -96.646,238.453C-69.028,230.765 -42.719,214.807 -20.303,195.919C-13.313,190.031 -6.547,183.768 -0.039,177.204C-0.025,177.189 -0.013,177.174 0,177.159" style="fill:rgb(232,232,232);fill-rule:nonzero;"/>
                    </g>
                    <g transform="matrix(1,0,0,1,215.97,347.189)">
                        <path d="M0,316.955C-0.01,316.9 -0.015,316.852 -0.022,316.8C-2.657,306.248 -4.11,295.034 -5.332,284.114C-5.395,283.553 -5.479,282.992 -5.548,282.434C-6.669,273.412 -6.938,264.177 -7.177,255.096C-7.412,246.134 -7.435,237.142 -6.94,228.188C-6.446,219.25 -5.592,210.331 -4.386,201.46C-3.169,192.516 -1.596,183.62 0.327,174.8C6.44,146.747 20.896,119.53 38.506,96.038C43.996,88.715 49.872,81.592 56.068,74.713C56.079,74.696 56.094,74.683 56.107,74.668C56.12,74.654 56.134,74.639 56.146,74.624C62.665,68.049 69.442,61.777 76.441,55.88C98.893,36.962 125.242,20.98 152.902,13.28C156.439,12.295 159.993,11.367 163.56,10.497C167.921,9.433 172.303,8.455 176.702,7.564C177.853,7.331 179.004,7.105 180.157,6.884C189.016,5.183 197.943,3.842 206.91,2.863C215.851,1.888 224.752,1.481 233.736,1.228L234.425,1.209C239.012,1.08 243.6,0.957 248.188,0.955C252.665,0.953 257.145,1.161 261.619,1.405C261.596,1.344 261.583,1.311 261.583,1.311C261.583,1.311 259.466,0.618 257.354,0.352C257.3,0.346 257.252,0.344 257.199,0.338C246.53,-1.688 235.27,-2.499 224.315,-3.096C219.814,-3.342 215.31,-3.552 210.807,-3.55C206.225,-3.548 201.645,-3.425 197.064,-3.296C196.835,-3.29 196.606,-3.284 196.377,-3.277C187.407,-3.025 178.52,-2.619 169.593,-1.645C160.639,-0.668 151.726,0.671 142.881,2.37C141.729,2.59 140.58,2.816 139.431,3.049C135.038,3.938 130.663,4.914 126.31,5.976C122.747,6.846 119.2,7.772 115.668,8.755C88.051,16.444 61.742,32.401 39.325,51.289C32.337,57.178 25.569,63.44 19.062,70.005C19.049,70.019 19.036,70.035 19.022,70.049C19.009,70.063 18.994,70.077 18.983,70.093C12.797,76.962 6.93,84.074 1.448,91.386C-16.134,114.842 -30.567,142.016 -36.672,170.026C-38.591,178.832 -40.162,187.715 -41.377,196.645C-42.581,205.502 -43.435,214.407 -43.928,223.332C-44.421,232.271 -44.399,241.25 -44.164,250.198C-43.927,259.265 -43.657,268.485 -42.537,277.494C-42.468,278.051 -42.385,278.61 -42.321,279.172C-41.103,290.074 -39.65,301.27 -37.021,311.807C-37.013,311.859 -37.008,311.907 -36.998,311.962C-36.612,314.055 -35.801,316.128 -35.801,316.128C-35.801,316.128 -33.684,316.821 -31.572,317.087C-31.518,317.094 -31.47,317.096 -31.417,317.101C-20.908,319.097 -9.826,319.913 0.974,320.507C0.704,319.738 0.259,318.358 0,316.955" style="fill:rgb(204,204,204);fill-rule:nonzero;"/>
                    </g>
                    <g transform="matrix(1,0,0,1,330.328,444.707)">
                        <path d="M0,98.316C1.298,90.512 3.303,82.829 7.041,75.816C10.49,69.344 15.118,63.492 20.002,58.124L158.352,-88.611C154.725,-91.332 151.038,-93.979 147.342,-96.613L125.355,-112.1L-7.409,28.712C-10.084,31.449 -14.704,35.918 -20.328,40.293C-20.889,40.729 -21.458,41.154 -22.033,41.571C-27.88,45.822 -34.198,49.46 -40.563,52.871C-47.574,56.628 -54.866,60.46 -62.405,63.028C-78.009,68.343 -95.188,67.168 -109.582,58.924C-120.963,52.406 -132.32,42.814 -135.451,29.488C-135.733,28.287 -135.921,27.091 -136.019,25.862C-136.041,25.586 -136.044,24.966 -136.102,24.346L-155.055,75.84L-154.328,77.293C-154.085,78.266 -151.69,79.874 -150.941,80.577C-149.8,81.648 -148.638,82.695 -147.464,83.729C-145.267,85.667 -142.954,87.48 -140.607,89.235C-135.677,92.923 -130.482,96.276 -124.996,99.08C-117.636,102.84 -109.656,105.365 -101.541,106.888C-87.471,109.529 -72.443,109.314 -58.464,106.226C-54.996,105.461 -51.568,104.51 -48.205,103.373C-46.833,102.908 -45.466,102.428 -44.102,101.94C-44.055,101.923 -43.964,101.899 -43.859,101.871C-43.97,102.975 -44.008,104.089 -44.047,105.2C-44.203,109.573 -44.545,113.94 -44.57,118.315C-44.662,133.884 -40.9,149.638 -34.415,163.757C-31.03,171.127 -26.012,178.054 -20.809,184.254C-12.75,193.855 -2.972,202.397 7.938,208.569C7.94,208.57 9.427,209.411 11.202,210.416L63.153,177.459C58.276,178.793 52.172,178.793 52.172,178.793C47.172,178.793 36.172,174.793 30.172,171.793C27.472,170.443 24.995,168.631 22.638,166.76C10.507,157.133 2.391,144.316 -0.283,128.966C-1.908,119.643 -1.741,109.977 -0.363,100.629C-0.249,99.857 -0.129,99.086 0,98.316" style="fill:rgb(22,19,18);fill-rule:nonzero;"/>
                    </g>
                    <g transform="matrix(1,0,0,1,569.523,391.736)">
                        <path d="M0,227.486C-0.019,227.468 -0.036,227.451 -0.055,227.432L-0.051,227.429C-7.986,218.594 -15.511,209.448 -22.539,200.045C-45.084,169.882 -63.578,134.947 -71.37,98.953C-78.285,67.013 -81.56,34.661 -81.182,2.744C-79.963,-4.066 -80.813,-12.055 -80.378,-19.08C-79.918,-26.511 -79.27,-33.91 -78.435,-41.268C-76.849,-55.272 -74.965,-69.653 -71.567,-83.184C-71.557,-83.25 -71.551,-83.312 -71.538,-83.382C-71.039,-86.07 -69.992,-88.733 -69.992,-88.733C-69.992,-88.733 -67.271,-89.619 -64.559,-89.956C-64.488,-89.965 -64.426,-89.968 -64.358,-89.974C-50.649,-92.558 -36.183,-93.581 -22.108,-94.328C-14.714,-94.722 -7.289,-94.929 0.156,-94.945C7.195,-94.96 15.119,-93.634 21.989,-94.445C53.872,-92.918 85.972,-87.719 117.441,-78.911C152.907,-68.985 186.676,-48.44 215.439,-24.135C224.407,-16.558 233.089,-8.501 241.434,-0.053L241.437,-0.056L241.487,0.001C241.505,0.019 241.523,0.036 241.541,0.054L241.538,0.057C249.473,8.892 256.997,18.039 264.026,27.442C286.571,57.605 305.065,92.539 312.857,128.533C319.771,160.473 323.047,192.826 322.669,224.743C321.449,231.552 322.301,239.542 321.865,246.567C321.405,253.998 320.756,261.396 319.922,268.755C318.336,282.758 316.451,297.139 313.055,310.671C313.044,310.737 313.038,310.799 313.024,310.869C312.526,313.556 311.479,316.219 311.479,316.219C311.479,316.219 308.759,317.105 306.046,317.443C305.975,317.452 305.913,317.455 305.846,317.461C292.137,320.045 277.669,321.067 263.596,321.815C256.2,322.209 248.776,322.416 241.331,322.431C234.292,322.446 226.368,321.121 219.498,321.931C187.615,320.404 155.516,315.205 124.045,306.397C88.58,296.472 54.812,275.926 26.048,251.622C17.08,244.045 8.398,235.988 0.054,227.54L0.05,227.543C0.033,227.524 0.017,227.505 0,227.486" style="fill:rgb(22,19,18);fill-rule:nonzero;"/>
                    </g>
                    <g transform="matrix(1,0,0,1,605.805,418.419)">
                        <path d="M0,177.159C-0.014,177.145 -0.028,177.132 -0.039,177.115C-6.226,170.247 -12.093,163.135 -17.574,155.822C-35.156,132.367 -49.591,105.193 -55.695,77.182C-61.391,51.046 -63.815,24.235 -63.22,-2.5C-62.75,-23.533 -59.8,-43.942 -56.044,-64.598C-56.036,-64.651 -56.031,-64.698 -56.021,-64.753C-55.636,-66.846 -54.823,-68.92 -54.823,-68.92C-54.823,-68.92 -52.707,-69.612 -50.596,-69.878C-50.54,-69.885 -50.492,-69.887 -50.439,-69.892C-39.771,-71.918 -28.51,-72.73 -17.556,-73.327C-13.056,-73.572 -8.55,-73.783 -4.047,-73.78C0.534,-73.778 5.115,-73.655 9.695,-73.527C9.924,-73.521 10.153,-73.514 10.382,-73.508C19.353,-73.256 28.24,-72.85 37.167,-71.876C46.12,-70.899 55.034,-69.559 63.879,-67.861C65.03,-67.64 66.18,-67.415 67.328,-67.182C71.722,-66.293 76.097,-65.316 80.45,-64.254C84.012,-63.385 87.56,-62.459 91.091,-61.475C118.709,-53.787 145.018,-37.83 167.435,-18.941C174.423,-13.053 181.189,-6.79 187.698,-0.226C187.711,-0.211 187.724,-0.196 187.737,-0.181C187.751,-0.168 187.765,-0.154 187.776,-0.137C193.963,6.731 199.83,13.844 205.311,21.156C222.894,44.611 237.327,71.785 243.432,99.796C245.351,108.601 246.922,117.484 248.136,126.415C249.341,135.271 250.194,144.177 250.687,153.101C251.181,162.041 251.158,171.019 250.924,179.968C250.686,189.034 250.416,198.255 249.297,207.263C249.228,207.82 249.144,208.38 249.081,208.941C247.861,219.844 246.41,231.04 243.78,241.576C243.772,241.629 243.768,241.677 243.758,241.731C243.372,243.824 242.561,245.898 242.561,245.898C242.561,245.898 240.443,246.591 238.332,246.856C238.276,246.863 238.229,246.865 238.177,246.87C227.508,248.896 216.247,249.708 205.292,250.305C201.912,250.489 198.532,250.67 195.148,250.762C188.479,250.942 181.727,250.725 175.049,250.481C148.763,249.52 122.184,245.562 96.646,238.453C69.027,230.765 42.719,214.807 20.302,195.919C13.313,190.031 6.547,183.768 0.039,177.204C0.025,177.189 0.013,177.174 0,177.159" style="fill:rgb(232,232,232);fill-rule:nonzero;"/>
                    </g>
                    <g transform="matrix(1,0,0,1,812.564,348.189)">
                        <path d="M0,316.955C0.01,316.9 0.015,316.852 0.022,316.801C2.656,306.248 4.11,295.034 5.331,284.114C5.395,283.553 5.478,282.992 5.547,282.434C6.669,273.412 6.938,264.177 7.177,255.096C7.412,246.135 7.435,237.142 6.94,228.188C6.446,219.25 5.591,210.331 4.385,201.46C3.169,192.516 1.595,183.62 -0.327,174.801C-6.44,146.747 -20.896,119.53 -38.507,96.038C-43.996,88.715 -49.872,81.592 -56.068,74.713C-56.079,74.696 -56.094,74.683 -56.107,74.668C-56.121,74.654 -56.134,74.639 -56.146,74.624C-62.665,68.049 -69.442,61.777 -76.441,55.88C-98.893,36.962 -125.242,20.98 -152.902,13.28C-156.44,12.295 -159.993,11.367 -163.561,10.497C-167.921,9.433 -172.303,8.455 -176.702,7.564C-177.853,7.331 -179.005,7.105 -180.157,6.884C-189.016,5.183 -197.943,3.842 -206.91,2.863C-215.852,1.888 -224.753,1.481 -233.736,1.228L-234.425,1.209C-239.012,1.08 -243.6,0.957 -248.188,0.955C-252.666,0.953 -257.145,1.161 -261.619,1.405C-261.596,1.344 -261.583,1.311 -261.583,1.311C-261.583,1.311 -259.467,0.618 -257.355,0.352C-257.3,0.346 -257.252,0.344 -257.199,0.338C-246.53,-1.688 -235.27,-2.5 -224.315,-3.096C-219.815,-3.342 -215.31,-3.552 -210.807,-3.55C-206.225,-3.548 -201.645,-3.425 -197.064,-3.296C-196.836,-3.29 -196.606,-3.284 -196.378,-3.277C-187.407,-3.025 -178.52,-2.619 -169.593,-1.645C-160.64,-0.668 -151.726,0.671 -142.881,2.37C-141.729,2.59 -140.58,2.816 -139.432,3.049C-135.038,3.938 -130.663,4.914 -126.31,5.976C-122.748,6.846 -119.2,7.772 -115.668,8.755C-88.051,16.444 -61.742,32.401 -39.325,51.289C-32.337,57.178 -25.57,63.44 -19.062,70.005C-19.049,70.019 -19.036,70.035 -19.022,70.049C-19.009,70.063 -18.995,70.077 -18.983,70.093C-12.797,76.962 -6.93,84.074 -1.449,91.386C16.134,114.842 30.567,142.016 36.672,170.026C38.591,178.832 40.162,187.715 41.376,196.645C42.581,205.502 43.435,214.407 43.928,223.332C44.421,232.271 44.398,241.25 44.164,250.198C43.926,259.265 43.656,268.485 42.537,277.494C42.468,278.051 42.384,278.61 42.321,279.172C41.102,290.074 39.65,301.27 37.021,311.807C37.013,311.859 37.008,311.907 36.998,311.962C36.612,314.055 35.801,316.129 35.801,316.129C35.801,316.129 33.684,316.821 31.572,317.087C31.518,317.094 31.469,317.096 31.417,317.101C20.908,319.097 9.826,319.913 -0.974,320.507C-0.704,319.738 -0.259,318.358 0,316.955" style="fill:rgb(204,204,204);fill-rule:nonzero;"/>
                    </g>
                    <g transform="matrix(1,0,0,1,834.373,521.621)">
                        <path d="M0,-52.083C-0.123,-51.321 -0.12,-50.406 -0.148,-50.051C-0.246,-48.822 -0.434,-47.626 -0.717,-46.425C-3.848,-33.1 -15.204,-23.507 -26.585,-16.989C-40.979,-8.746 -58.158,-7.57 -73.762,-12.885C-81.301,-15.454 -88.594,-19.286 -95.604,-23.042C-101.969,-26.453 -108.287,-30.091 -114.135,-34.342C-114.709,-34.759 -115.278,-35.185 -115.839,-35.621C-121.463,-39.995 -126.083,-44.464 -128.758,-47.201L-261.662,-188.161L-294.233,-164.221L-156.17,-17.79C-151.285,-12.421 -146.657,-6.569 -143.208,-0.097C-139.47,6.916 -137.465,14.599 -136.167,22.403C-136.039,23.172 -135.918,23.944 -135.805,24.716C-134.426,34.064 -134.259,43.73 -135.884,53.053C-138.559,68.403 -146.674,81.22 -158.805,90.847C-161.162,92.718 -163.639,94.53 -166.339,95.879C-172.339,98.879 -183.339,102.879 -188.339,102.879C-188.339,102.879 -196.339,102.879 -201.339,100.879C-202.223,100.526 -202.853,100.521 -203.297,100.745L-150.154,136.078C-147.485,134.568 -144.108,132.658 -144.105,132.656C-133.195,126.484 -123.417,117.942 -115.358,108.34C-110.155,102.141 -105.137,95.213 -101.752,87.844C-95.267,73.725 -91.505,57.971 -91.597,42.402C-91.622,38.027 -91.964,33.66 -92.12,29.287C-92.16,28.176 -92.197,27.062 -92.309,25.958C-92.203,25.986 -92.113,26.01 -92.065,26.027C-90.701,26.515 -89.334,26.995 -87.962,27.459C-84.599,28.597 -81.171,29.547 -77.703,30.313C-63.724,33.401 -48.696,33.616 -34.626,30.975C-26.511,29.452 -18.531,26.927 -11.171,23.167C-5.685,20.363 -0.49,17.01 4.44,13.322C6.787,11.567 9.1,9.753 11.297,7.816C12.471,6.782 13.633,5.735 14.773,4.664C15.523,3.96 17.918,2.353 18.161,1.379L19.291,-0.882L0,-52.083Z" style="fill:rgb(22,19,18);fill-rule:nonzero;"/>
                    </g>
                </g>
            </g>
        </g>
    </g>
</svg>
